<svg xmlns="http://www.w3.org/2000/svg" width="400" height="158" viewBox="0 0 400 158" role="img" aria-labelledby="cardtitle carddesc">
<title id="cardtitle">Frontend</title>
<desc id="carddesc">React, Next.js, HTML5, Blazor</desc>
<rect x=".5" y=".5" width="399" height="157" rx="10" fill="#0D1117" stroke="#283347"/>
<path d="M17 40H68" stroke="#2563EB" stroke-width="2" stroke-linecap="round"/>
<text x="18" y="30" font-family="Segoe UI,Arial,sans-serif" font-size="17" font-weight="650" fill="#60A5FA">Frontend</text>
<rect x="18" y="48" width="177" height="44" rx="9" fill="#142936" stroke="#25576A"/><rect x="27" y="56" width="28" height="28" rx="7" fill="#61DAFB"/><g transform="translate(41 70)" fill="none" stroke="#10252B" stroke-width="1.25"><ellipse rx="10" ry="4.1"/><ellipse rx="10" ry="4.1" transform="rotate(60)"/><ellipse rx="10" ry="4.1" transform="rotate(120)"/><circle r="1.7" fill="#10252B" stroke="none"/></g><text x="63" y="75" font-family="Segoe UI,Arial,sans-serif" font-size="13.2" font-weight="650" fill="#E6EDF3">React</text><rect x="205" y="48" width="177" height="44" rx="9" fill="#20252D" stroke="#46515F"/><rect x="214" y="56" width="28" height="28" rx="7" fill="#E6EDF3"/><text x="228" y="74.7" font-family="Segoe UI,Arial,sans-serif" font-size="11.5" font-weight="750" text-anchor="middle" fill="#0D1117">N</text><text x="250" y="75" font-family="Segoe UI,Arial,sans-serif" font-size="13.2" font-weight="650" fill="#E6EDF3">Next.js</text><rect x="18" y="100" width="177" height="44" rx="9" fill="#301F1C" stroke="#724236"/><rect x="27" y="108" width="28" height="28" rx="7" fill="#E34F26"/><text x="41" y="126.7" font-family="Segoe UI,Arial,sans-serif" font-size="11.5" font-weight="750" text-anchor="middle" fill="#FFFFFF">5</text><text x="63" y="127" font-family="Segoe UI,Arial,sans-serif" font-size="13.2" font-weight="650" fill="#E6EDF3">HTML5</text><rect x="205" y="100" width="177" height="44" rx="9" fill="#241B36" stroke="#493B69"/><rect x="214" y="108" width="28" height="28" rx="7" fill="#7952B3"/><text x="228" y="126.7" font-family="Segoe UI,Arial,sans-serif" font-size="11.5" font-weight="750" text-anchor="middle" fill="#FFFFFF">B</text><text x="250" y="127" font-family="Segoe UI,Arial,sans-serif" font-size="13.2" font-weight="650" fill="#E6EDF3">Blazor</text>
</svg>
